<?xml version="1.0" standalone="no"?>
<!DOCTYPE svg PUBLIC "-//W3C//DTD SVG 20010904//EN"
 "http://www.w3.org/TR/2001/REC-SVG-20010904/DTD/svg10.dtd">
<svg version="1.0" xmlns="http://www.w3.org/2000/svg"
 width="1280.000000pt" height="1280.000000pt" viewBox="0 0 1280.000000 1280.000000"
 preserveAspectRatio="xMidYMid meet">
<metadata>
Created by potrace 1.15, written by Peter Selinger 2001-2017
</metadata>
<g transform="translate(0.000000,1280.000000) scale(0.100000,-0.100000)"
fill="#000000" stroke="none">
<path d="M4520 11180 c-1408 -11 -1961 -19 -1975 -27 -31 -17 -73 -65 -84 -96
-8 -21 -7 -195 4 -615 9 -323 21 -801 28 -1062 12 -446 14 -478 32 -506 11
-17 95 -99 187 -182 117 -106 178 -154 205 -162 30 -9 201 -7 748 9 945 28
1907 56 2760 81 385 10 762 22 838 25 l137 5 0 -426 c0 -274 -4 -432 -10 -445
-9 -16 -22 -19 -97 -19 -47 0 -322 -9 -612 -20 -455 -17 -965 -36 -1516 -55
-617 -22 -727 -32 -918 -76 -293 -69 -586 -214 -832 -412 -102 -82 -302 -288
-382 -392 -228 -301 -356 -592 -420 -960 -28 -161 -25 -329 47 -3015 l19 -715
154 -410 c167 -446 179 -467 254 -481 34 -7 260 11 1168 91 197 18 1951 173
3395 301 591 52 1378 121 1748 154 723 64 722 64 765 124 26 37 28 70 52 1061
8 352 18 708 21 792 4 101 2 163 -5 186 -19 55 5 37 -659 514 l-213 153 -62 0
c-34 0 -197 -9 -362 -20 -165 -11 -583 -38 -930 -60 -346 -22 -664 -42 -705
-45 -93 -6 -435 -28 -860 -55 -368 -23 -890 -57 -1027 -66 l-93 -6 0 281 0
281 23 4 c12 3 189 14 392 26 204 12 555 32 780 45 226 14 563 34 750 45 187
11 491 29 675 40 380 23 500 38 685 85 384 98 704 284 1001 580 210 209 347
400 470 650 140 286 212 571 229 905 11 224 37 1299 38 1595 1 241 -2 321 -17
410 -61 385 -183 682 -402 976 -86 116 -259 298 -374 394 -249 208 -575 365
-881 424 -58 11 -301 41 -540 66 l-435 45 -619 -2 c-341 -1 -1500 -9 -2575
-18z"/>
</g>
</svg>
